<?xml version="1.0" encoding="utf-8"?>
<!-- Uploaded to: SVG Repo, www.svgrepo.com, Generator: SVG Repo Mixer Tools -->
<svg width="800px" height="800px" viewBox="0 0 1024 1024" class="icon"  version="1.1" xmlns="http://www.w3.org/2000/svg"><path d="M163.3 526.6l-73.4 25.1c-3.9 1.3-6.5 5.1-6.5 9.3 0 4 2.4 7.6 6 9.1l74 30.6v-74.1z" fill="#D5D9CF" /><path d="M168.8 608.9l-81.6-33.7c-5.7-2.4-9.4-7.9-9.4-14.2 0-6.6 4.1-12.4 10.3-14.5l80.7-27.5v89.9z m-11-74.6l-66.2 22.6c-1.7 0.6-2.8 2.2-2.8 4.1 0 1.8 1 3.4 2.6 4l66.4 27.4v-58.1z" fill="#333336" /><path d="M717.4 282.4c-15.8 0-35.6 1.5-50.6 4-32.1 5.4-64.4 15.2-105.1 33.2-25.2 11.2-52.7 15.9-79.9 12.7-4.8-0.6-9.6-0.9-14.6-0.9-45.3 0-78.1 18.5-107.4 61-15.6 22.7-34.3 42.8-58.3 55.4-61.1 32-110.8 58.9-131.5 70.2-6.4 3.5-10.3 10.2-10.3 17.6v51.7c0 7.8 4.4 14.8 11.2 18.1 54.5 25.9 298 135.1 536.5 136.2 2 0 3.9 0 5.9-0.1 1.4 0 2.7 0.1 4.1 0.1 123.3 0 223.3-102.6 223.3-229.1s-100-230.1-223.3-230.1z" fill="#68A240" /><path d="M717.4 747.1h-4.1c-1.9 0-3.9 0.1-5.9 0-101.8-0.5-215.9-20.3-338.9-59-97.7-30.7-172.4-64.6-199.9-77.7-8.7-4.2-14.4-13.2-14.4-23v-51.7c0-9.4 5.1-18 13.2-22.4 18.9-10.3 69.6-37.8 131.5-70.1 20.5-10.7 38.9-28.2 56.4-53.6 30.1-44 64.7-63.6 111.9-63.6 5.1 0 10.2 0.3 15.2 0.9 25.5 3 52.2-1.2 77.1-12.3 39.6-17.6 72.4-27.9 106.4-33.6 14.8-2.5 35-4.1 51.5-4.1 126.2 0 228.8 105.7 228.8 235.5 0 62.6-23.8 121.5-67 165.8-43.2 44.4-100.6 68.9-161.8 68.9z m-4.1-11.1h4.1c58.1 0 112.8-23.2 153.9-65.4 41.2-42.2 63.8-98.4 63.8-158.2 0-123.8-97.7-224.5-217.8-224.5-15.9 0-35.5 1.5-49.7 3.9-33 5.5-65 15.6-103.8 32.8-26.7 11.8-55.3 16.4-82.8 13.1-4.6-0.5-9.3-0.8-13.9-0.8-43.8 0-74.6 17.5-102.9 58.6-18.5 26.9-38.2 45.6-60.3 57.1-61.8 32.3-112.5 59.7-131.4 70-4.6 2.5-7.5 7.4-7.5 12.8v51.7c0 5.6 3.2 10.8 8.1 13.1 27.4 13 101.5 46.6 198.5 77.1 122 38.4 234.9 58.1 335.7 58.5h5.7l0.3 0.2z" fill="#333336" /><path d="M479.5 656.5c-137.4-25-180.7-147.8-186.8-204.1-37.2 19.8-108.1 57.6-122.7 65.5-6.4 3.5-10.3 10.2-10.3 17.6v51.7c0 7.8 4.4 14.8 11.2 18.1 42.3 20.1 198.5 90.4 377.9 121.4-0.4-52.2-37.6-64.4-69.3-70.2z" fill="#FFD632" /><path d="M554.4 733.3l-6.5-1.1c-179.5-31-335.7-101.1-379.3-121.8-8.7-4.2-14.4-13.2-14.4-23v-51.7c0-9.4 5.1-18 13.2-22.4 14.2-7.8 84.4-45.2 122.7-65.5l7.2-3.8 0.9 8.1c1.5 13.8 9.1 62.7 43.2 111.2 33.6 47.8 80.4 77.4 139.1 88 34.1 6.2 73.4 20.4 73.8 75.6l0.1 6.4zM288.3 461C249 481.9 186 515.5 172.7 522.8c-4.6 2.5-7.5 7.4-7.5 12.8v51.7c0 5.6 3.2 10.8 8.1 13.1C216 620.7 367.8 688.9 543 720.2c-3.2-41.2-32.7-52.4-64.5-58.2-32.8-6-62.6-17.9-88.4-35.4-22.2-15-41.6-34.3-57.8-57.2-30.7-43.6-40.8-87.8-44-108.4z" fill="#333336" /><path d="M726.6 339.9l2.9-2.2c11.1-8.4 27-5.2 34.1 6.8l1.9 3.2c5.3 9 15.8 13.3 25.9 10.7l3.6-0.9c13.5-3.5 27 5.5 28.9 19.3l0.5 3.7c1.4 10.3 9.5 18.4 19.8 19.8l3.7 0.5c13.8 1.9 22.8 15.4 19.3 28.9l-0.9 3.6c-2.6 10.1 1.8 20.6 10.7 25.9l3.2 1.9c12 7 15.2 23 6.8 34.1l-2.2 2.9c-6.3 8.3-6.3 19.7 0 28l2.2 2.9c8.4 11.1 5.2 27-6.8 34.1L877 565c-9 5.3-13.3 15.8-10.7 25.9l0.9 3.6c3.5 13.5-5.5 27-19.3 28.9l-3.7 0.5c-10.3 1.4-18.4 9.5-19.8 19.8l-0.5 3.7c-1.9 13.8-15.4 22.8-28.9 19.3l-3.6-0.9c-10.1-2.6-20.6 1.8-25.9 10.7l-1.9 3.2c-7 12-23 15.2-34.1 6.8l-2.9-2.2c-8.3-6.3-19.7-6.3-28 0l-2.9 2.2c-11.1 8.4-27 5.2-34.1-6.8l-1.9-3.2c-5.3-9-15.8-13.3-25.9-10.7l-3.6 0.9c-13.5 3.5-27-5.5-28.9-19.3l-0.5-3.7c-1.4-10.3-9.5-18.4-19.8-19.8l-3.7-0.5c-13.8-1.9-22.8-15.4-19.3-28.9l0.9-3.6c2.6-10.1-1.8-20.6-10.7-25.9l-3.2-1.9c-12-7-15.2-23-6.8-34.1l2.2-2.9c6.3-8.3 6.3-19.7 0-28l-2.2-2.9c-8.4-11.1-5.2-27 6.8-34.1l3.2-1.9c9-5.3 13.3-15.8 10.7-25.9l-0.9-3.6c-3.5-13.5 5.5-27 19.3-28.9l3.7-0.5c10.3-1.4 18.4-9.5 19.8-19.8l0.5-3.7c1.9-13.8 15.4-22.8 28.9-19.3l3.6 0.9c10.1 2.6 20.6-1.8 25.9-10.7l1.9-3.2c7-12 23-15.2 34.1-6.8l2.9 2.2c8.3 6.3 19.7 6.3 28 0z" fill="#FFD632" /><path d="M681.6 696.5c-1.9 0-3.7-0.2-5.6-0.6-8-1.6-15-6.6-19.2-13.6l-1.9-3.2c-4-6.8-12.1-10.2-19.8-8.2l-3.6 0.9c-7.9 2.1-16.4 0.6-23.2-3.9-6.8-4.6-11.4-11.8-12.5-19.9l-0.5-3.7c-1.1-7.8-7.3-14-15.1-15.1l-3.7-0.5c-8.1-1.1-15.4-5.7-19.9-12.5-4.6-6.8-6-15.3-3.9-23.2l0.9-3.6c2-7.6-1.4-15.8-8.2-19.8l-3.2-1.9c-7.1-4.1-12-11.1-13.6-19.2s0.3-16.4 5.3-22.9l2.2-2.9c4.8-6.3 4.8-15.1 0-21.4l-2.2-2.9c-4.9-6.5-6.9-14.9-5.3-22.9 1.6-8 6.6-15 13.6-19.2l3.2-1.9c6.8-4 10.2-12.1 8.2-19.8l-0.9-3.6c-2.1-7.9-0.6-16.4 3.9-23.2s11.8-11.4 19.9-12.5l3.7-0.5c7.8-1.1 14-7.3 15.1-15.1l0.5-3.7c1.1-8.1 5.7-15.4 12.5-19.9 6.8-4.6 15.3-6 23.2-3.9l3.6 0.9c7.6 2 15.8-1.4 19.8-8.2l1.9-3.2c4.2-7.1 11.1-12 19.2-13.6 8-1.6 16.4 0.3 22.9 5.3l2.9 2.2c6.3 4.8 15.1 4.8 21.4 0l2.9-2.2c6.5-4.9 14.9-6.9 22.9-5.3 8 1.6 15 6.6 19.2 13.6l1.9 3.2c4 6.8 12.1 10.2 19.8 8.2l3.6-0.9c7.9-2.1 16.4-0.6 23.2 3.9 6.8 4.6 11.4 11.8 12.5 19.9l0.5 3.7c1.1 7.8 7.3 14 15.1 15.1l3.7 0.5c8.1 1.1 15.4 5.7 19.9 12.5 4.6 6.8 6 15.3 3.9 23.2l-0.9 3.6c-2 7.6 1.4 15.8 8.2 19.8l3.2 1.9c7.1 4.2 12 11.1 13.6 19.2 1.6 8-0.3 16.4-5.3 22.9l-2.2 2.9c-4.8 6.3-4.8 15.1 0 21.4l2.2 2.9c4.9 6.5 6.9 14.9 5.3 22.9s-6.6 15-13.6 19.2l-3.2 1.9c-6.8 4-10.2 12.1-8.2 19.8l0.9 3.6c2.1 7.9 0.6 16.4-3.9 23.2-4.6 6.8-11.8 11.4-19.9 12.5l-3.7 0.5c-7.8 1.1-14 7.3-15.1 15.1l-0.5 3.7c-1.1 8.1-5.7 15.4-12.5 19.9-6.8 4.6-15.3 6-23.2 3.9l-3.6-0.9c-7.6-2-15.8 1.4-19.8 8.2l-1.9 3.2c-4.2 7.1-11.1 12-19.2 13.6-8 1.6-16.4-0.3-22.9-5.3l-2.9-2.2c-6.3-4.8-15.1-4.8-21.4 0l-2.9 2.2c-5 3.9-11.1 5.9-17.3 5.9z m-42-37.1c10 0 19.6 5.3 24.9 14.2l1.9 3.2c2.6 4.4 6.9 7.4 11.8 8.4 5 1 10.1-0.2 14.2-3.2l2.9-2.2c10.2-7.7 24.5-7.7 34.7 0l2.9 2.2c4 3.1 9.2 4.2 14.2 3.2s9.3-4.1 11.8-8.4l1.9-3.2c6.5-11 19.6-16.5 32-13.3l3.6 0.9c4.9 1.3 10.1 0.4 14.3-2.4 4.2-2.8 7-7.3 7.7-12.3l0.5-3.7c1.8-12.7 11.8-22.8 24.5-24.5l3.7-0.5c5-0.7 9.5-3.5 12.3-7.7 2.8-4.2 3.7-9.4 2.4-14.3l-0.9-3.6c-3.2-12.4 2.2-25.6 13.3-32l3.2-1.9c4.4-2.6 7.4-6.9 8.4-11.8 1-5-0.2-10.1-3.2-14.2l-2.2-2.9c-7.7-10.2-7.7-24.5 0-34.7l2.2-2.9c3.1-4 4.2-9.2 3.2-14.2s-4.1-9.3-8.4-11.8l-3.2-1.9c-11-6.5-16.5-19.6-13.3-32l0.9-3.6c1.3-4.9 0.4-10.1-2.4-14.3-2.8-4.2-7.3-7-12.3-7.7l-3.7-0.5c-12.7-1.8-22.8-11.8-24.5-24.5l-0.5-3.7c-0.7-5-3.5-9.5-7.7-12.3-4.2-2.8-9.4-3.7-14.3-2.4l-3.6 0.9c-12.4 3.2-25.6-2.2-32-13.3l-1.9-3.2c-2.6-4.4-6.9-7.4-11.8-8.4-5-1-10.1 0.2-14.2 3.2l-2.9 2.2c-10.2 7.7-24.5 7.7-34.7 0l-2.9-2.2c-4-3.1-9.2-4.2-14.2-3.2s-9.3 4.1-11.8 8.4l-1.9 3.2c-6.5 11-19.6 16.5-32 13.3l-3.6-0.9c-4.9-1.3-10.1-0.4-14.3 2.4-4.2 2.8-7 7.3-7.7 12.3l-0.5 3.7c-1.8 12.7-11.8 22.7-24.5 24.5l-3.7 0.5c-5 0.7-9.5 3.5-12.3 7.7-2.8 4.2-3.7 9.4-2.4 14.3l0.9 3.6c3.2 12.4-2.2 25.6-13.3 32l-3.2 1.9c-4.4 2.6-7.4 6.9-8.4 11.8-1 5 0.2 10.1 3.2 14.2l2.2 2.9c7.7 10.2 7.7 24.5 0 34.7l-2.2 2.9c-3.1 4-4.2 9.2-3.2 14.2s4.1 9.3 8.4 11.8l3.2 1.9c11 6.5 16.5 19.6 13.3 32l-0.9 3.6c-1.3 4.9-0.4 10.1 2.4 14.3 2.8 4.2 7.3 7 12.3 7.7l3.7 0.5c12.7 1.8 22.8 11.8 24.5 24.5l0.5 3.7c0.7 5 3.5 9.5 7.7 12.3s9.4 3.7 14.3 2.4l3.6-0.9c2.3-0.6 4.7-0.9 7.1-0.9z" fill="#333336" /><path d="M712.6 360.2c-83.3 0-150.8 67.5-150.8 150.8s67.5 150.8 150.8 150.8S863.4 594.3 863.4 511s-67.5-150.8-150.8-150.8z m0 200.6c-27.5 0-49.9-22.3-49.9-49.9 0-27.5 22.3-49.9 49.9-49.9 27.5 0 49.9 22.3 49.9 49.9 0 27.6-22.3 49.9-49.9 49.9z" fill="#F2F0E7" /><path d="M712.6 667.3c-86.2 0-156.3-70.1-156.3-156.3s70.1-156.3 156.3-156.3S868.9 424.8 868.9 511s-70.1 156.3-156.3 156.3z m0-301.6c-80.1 0-145.3 65.2-145.3 145.3s65.2 145.3 145.3 145.3S857.9 591.1 857.9 511s-65.2-145.3-145.3-145.3z m0 200.6c-30.5 0-55.4-24.8-55.4-55.4s24.8-55.4 55.4-55.4S768 480.4 768 511s-24.9 55.3-55.4 55.3z m0-99.7c-24.5 0-44.4 19.9-44.4 44.4s19.9 44.4 44.4 44.4 44.4-20 44.4-44.4c0-24.5-19.9-44.4-44.4-44.4z" fill="#333336" /><path d="M716 511m-58.5 0a58.5 58.5 0 1 0 117 0 58.5 58.5 0 1 0-117 0Z" fill="#68A240" /><path d="M716 575c-35.3 0-64-28.7-64-64s28.7-64 64-64 64 28.7 64 64-28.7 64-64 64z m0-117c-29.2 0-53 23.8-53 53s23.8 53 53 53 53-23.8 53-53-23.7-53-53-53z" fill="#333336" /></svg>